<svg xmlns="http://www.w3.org/2000/svg" viewBox="0 0 24 24" fill="black" width="24" height="24">
  <path d="M11.09 3.25l-.89 1.34v10.88c-2.73.45-4.89 2.62-5.34 5.34h2.02c.37-1.84 1.88-3.26 3.72-3.26s3.35 1.42 3.72 3.26h2.02c-.45-2.73-2.61-4.89-5.34-5.34V4.59l-.89-1.34zm-.09-1.25h2v2h-2zm-2.62 5.75c-.91 0-1.66.75-1.66 1.66s.75 1.66 1.66 1.66 1.66-.75 1.66-1.66-.75-1.66-1.66-1.66zm5.24 0c-.91 0-1.66.75-1.66 1.66s.75 1.66 1.66 1.66 1.66-.75 1.66-1.66-.75-1.66-1.66-1.66zm-3.91 14.25h-2v-2h2zm2.62-5.75c.91 0 1.66-.75 1.66-1.66s-.75-1.66-1.66-1.66-1.66.75-1.66 1.66.75 1.66 1.66 1.66zm-5.24 0c.91 0 1.66-.75 1.66-1.66s-.75-1.66-1.66-1.66-1.66.75-1.66 1.66.75 1.66 1.66 1.66z"/>
</svg>
